<svg width="215" height="137" viewBox="0 0 215 137" fill="none" xmlns="http://www.w3.org/2000/svg">
<path d="M16.7567 136.828V129.209H20.1349C20.6592 129.187 21.1834 129.256 21.6837 129.414C22.0398 129.554 22.3384 129.809 22.5309 130.139C22.742 130.485 22.8518 130.883 22.8479 131.288C22.8607 131.795 22.672 132.287 22.323 132.655C21.973 133.026 21.4325 133.261 20.7014 133.362C20.9205 133.46 21.1251 133.587 21.3095 133.741C21.6298 134.043 21.9109 134.383 22.1463 134.755L23.4716 136.828H22.2034L21.1951 135.243C20.9006 134.786 20.6581 134.436 20.4675 134.193C20.3249 133.998 20.1521 133.826 19.9556 133.684C19.8146 133.591 19.6592 133.523 19.4956 133.481C19.31 133.452 19.1221 133.44 18.9343 133.445H17.7649V136.828H16.7567ZM17.7649 132.572H19.9322C20.298 132.585 20.6635 132.537 21.0132 132.429C21.2562 132.347 21.4648 132.186 21.6057 131.971C21.7389 131.768 21.8094 131.531 21.8084 131.288C21.8128 131.12 21.7799 130.953 21.7121 130.8C21.6442 130.646 21.5431 130.509 21.416 130.399C21.1544 130.167 20.7412 130.051 20.1765 130.051H17.7649V132.572Z" fill="#F8B116"/>
<path d="M26.5775 136.828V129.209H32.0866V130.108H27.5857V132.442H31.8008V133.336H27.5857V135.929H32.2634V136.828H26.5775Z" fill="#F8B116"/>
<path d="M34.9482 136.828L37.8743 129.209H38.9605L42.0789 136.828H40.9303L40.0416 134.521H36.8556L36.0188 136.828H34.9482ZM37.1466 133.7H39.7297L38.9345 131.59C38.692 130.949 38.5118 130.422 38.394 130.01C38.2952 130.505 38.1579 130.991 37.9834 131.465L37.1466 133.7Z" fill="#F8B116"/>
<path d="M44.9717 136.828V129.209H45.98V135.929H49.7324V136.828H44.9717Z" fill="#F8B116"/>
<path d="M59.4993 136.828V130.108H56.989V129.209H63.0283V130.108H60.5076V136.828H59.4993Z" fill="#F8B116"/>
<path d="M66.2121 136.828V129.209H71.7213V130.108H67.2204V132.442H71.4354V133.336H67.2204V135.929H71.898V136.828H66.2121Z" fill="#F8B116"/>
<path d="M75.0767 134.38L76.0278 134.297C76.0564 134.631 76.1642 134.952 76.3422 135.235C76.5356 135.502 76.8017 135.708 77.1089 135.828C77.4788 135.983 77.877 136.06 78.2783 136.054C78.6255 136.06 78.9709 136.002 79.2969 135.883C79.5572 135.793 79.7857 135.63 79.9544 135.412C80.0947 135.224 80.1703 134.995 80.1701 134.76C80.1743 134.533 80.1009 134.313 79.9622 134.134C79.7783 133.925 79.5413 133.769 79.2762 133.684C78.8308 133.537 78.378 133.413 77.9197 133.312C77.4132 133.209 76.9198 133.05 76.4488 132.837C76.1195 132.677 75.8387 132.432 75.6354 132.127C75.4565 131.844 75.3636 131.514 75.3678 131.179C75.3676 130.795 75.4815 130.42 75.6952 130.1C75.9281 129.754 76.262 129.488 76.6515 129.339C77.0958 129.161 77.571 129.073 78.0496 129.079C78.5609 129.069 79.069 129.162 79.5438 129.352C79.9492 129.513 80.2962 129.793 80.5391 130.155C80.7726 130.513 80.9022 130.929 80.9133 131.356L79.9466 131.428C79.9359 131.22 79.8838 131.017 79.7932 130.829C79.7026 130.642 79.5754 130.474 79.4191 130.337C79.1193 130.091 78.6767 129.968 78.0912 129.968C77.4813 129.968 77.0369 130.08 76.7581 130.303C76.6297 130.396 76.5249 130.517 76.4522 130.657C76.3795 130.798 76.3409 130.953 76.3397 131.111C76.3363 131.239 76.3611 131.365 76.4123 131.482C76.4635 131.599 76.5398 131.703 76.6359 131.787C76.8299 131.964 77.3367 132.145 78.1561 132.33C78.7314 132.443 79.2957 132.605 79.8427 132.816C80.2354 132.98 80.5753 133.249 80.825 133.593C81.0384 133.914 81.149 134.292 81.142 134.677C81.1412 135.085 81.0201 135.483 80.7938 135.823C80.5483 136.193 80.2007 136.483 79.7933 136.66C79.3313 136.864 78.8303 136.966 78.325 136.958C77.7328 136.976 77.1432 136.873 76.5917 136.657C76.1438 136.471 75.7618 136.155 75.4951 135.75C75.2287 135.342 75.0837 134.867 75.0767 134.38Z" fill="#F8B116"/>
<path d="M86.5869 136.828V130.108H84.0766V129.209H90.1159V130.108H87.5952V136.828H86.5869Z" fill="#F8B116"/>
<path d="M98.3447 136.828V129.209H99.353V136.828H98.3447Z" fill="#F8B116"/>
<path d="M103.249 136.828V129.209H104.283L108.285 135.191V129.209H109.252V136.828H108.217L104.216 130.841V136.828H103.249Z" fill="#F8B116"/>
<path d="M118.182 136.828V129.209H123.691V130.108H119.19V132.442H123.405V133.336H119.19V135.929H123.868V136.828H118.182Z" fill="#F8B116"/>
<path d="M129.567 136.828L126.615 129.209H127.706L129.687 134.744C129.846 135.188 129.979 135.604 130.087 135.992C130.204 135.576 130.341 135.16 130.497 134.744L132.555 129.209H133.584L130.601 136.828H129.567Z" fill="#F8B116"/>
<path d="M136.638 136.828V129.209H142.148V130.108H137.647V132.442H141.862V133.336H137.647V135.929H142.324V136.828H136.638Z" fill="#F8B116"/>
<path d="M145.862 136.828V129.209H149.24C149.764 129.187 150.288 129.256 150.789 129.414C151.145 129.554 151.443 129.809 151.636 130.139C151.847 130.485 151.957 130.883 151.953 131.288C151.966 131.795 151.777 132.287 151.428 132.655C151.078 133.026 150.537 133.261 149.806 133.362C150.025 133.46 150.23 133.587 150.414 133.741C150.735 134.043 151.016 134.383 151.251 134.755L152.577 136.828H151.308L150.3 135.243C150.006 134.786 149.763 134.436 149.572 134.193C149.43 133.998 149.257 133.826 149.061 133.684C148.92 133.591 148.764 133.523 148.601 133.481C148.415 133.452 148.227 133.44 148.039 133.445H146.87V136.828H145.862ZM146.87 132.572H149.037C149.403 132.585 149.768 132.537 150.118 132.429C150.361 132.347 150.57 132.186 150.711 131.971C150.844 131.768 150.914 131.531 150.913 131.288C150.918 131.12 150.885 130.953 150.817 130.8C150.749 130.646 150.648 130.509 150.521 130.399C150.259 130.167 149.846 130.051 149.281 130.051H146.87V132.572Z" fill="#F8B116"/>
<path d="M157.616 136.828V133.601L154.679 129.209H155.906L157.408 131.506C157.685 131.936 157.943 132.366 158.182 132.795C158.411 132.397 158.688 131.948 159.014 131.449L160.49 129.209H161.665L158.624 133.601V136.828H157.616Z" fill="#F8B116"/>
<path d="M169.55 136.828V129.209H172.409C172.886 129.191 173.363 129.27 173.809 129.44C174.152 129.587 174.44 129.835 174.636 130.152C174.829 130.452 174.932 130.801 174.934 131.158C174.935 131.484 174.843 131.803 174.669 132.078C174.474 132.382 174.197 132.623 173.869 132.775C174.289 132.883 174.662 133.126 174.932 133.466C175.182 133.798 175.313 134.204 175.303 134.62C175.306 134.964 175.229 135.305 175.077 135.615C174.95 135.892 174.758 136.135 174.519 136.324C174.268 136.504 173.985 136.632 173.684 136.701C173.281 136.793 172.869 136.836 172.455 136.828H169.55ZM170.558 132.411H172.206C172.529 132.424 172.852 132.394 173.167 132.322C173.397 132.264 173.601 132.13 173.747 131.943C173.882 131.748 173.951 131.515 173.942 131.278C173.947 131.042 173.883 130.81 173.76 130.61C173.641 130.419 173.456 130.279 173.24 130.215C172.86 130.127 172.47 130.092 172.081 130.108H170.558V132.411ZM170.558 135.929H172.455C172.685 135.935 172.914 135.923 173.141 135.893C173.347 135.861 173.544 135.791 173.723 135.685C173.887 135.58 174.019 135.434 174.108 135.261C174.212 135.064 174.263 134.843 174.259 134.62C174.265 134.356 174.189 134.097 174.041 133.879C173.894 133.668 173.68 133.513 173.435 133.437C173.072 133.339 172.696 133.296 172.32 133.31H170.558V135.929Z" fill="#F8B116"/>
<path d="M178.992 136.828V129.209H180V136.828H178.992Z" fill="#F8B116"/>
<path d="M185.845 136.828V130.108H183.334V129.209H189.374V130.108H186.853V136.828H185.845Z" fill="#F8B116"/>
<path d="M192.558 136.828V129.209H198.067V130.108H193.566V132.442H197.781V133.336H193.566V135.929H198.243V136.828H192.558Z" fill="#F8B116"/>
<path d="M126.675 115.258H102.301V80.4443H109.269V108.29H126.675V115.258Z" fill="black"/>
<path d="M153.925 101.347C153.938 103.211 153.566 105.058 152.833 106.773C152.131 108.424 151.117 109.925 149.847 111.191C148.571 112.454 147.068 113.463 145.416 114.165C143.698 114.886 141.853 115.258 139.99 115.258C138.127 115.258 136.282 114.886 134.564 114.165C131.231 112.758 128.579 110.106 127.172 106.773C126.439 105.058 126.067 103.211 126.079 101.347V80.4443H133.023V101.347C133.017 102.273 133.203 103.191 133.569 104.042C134.279 105.711 135.611 107.039 137.283 107.744C138.14 108.104 139.06 108.29 139.99 108.29C140.92 108.29 141.84 108.104 142.697 107.744C144.369 107.039 145.701 105.711 146.411 104.042C146.777 103.191 146.963 102.273 146.958 101.347V80.4443H153.925V101.347Z" fill="#1E1E1E"/>
<path d="M185.181 104.818C185.19 106.213 184.909 107.593 184.355 108.873C183.283 111.369 181.293 113.359 178.796 114.432C177.517 114.986 176.136 115.267 174.742 115.258H157.335V80.4443H174.742C176.136 80.435 177.516 80.716 178.796 81.2697C181.293 82.3422 183.283 84.3322 184.355 86.8292C184.909 88.1086 185.19 89.4893 185.181 90.8834C185.177 91.5557 185.088 92.2247 184.914 92.8742C184.735 93.555 184.483 94.2144 184.161 94.8406C183.845 95.4607 183.453 96.0395 182.996 96.5642C182.561 97.0661 182.054 97.4998 181.491 97.8509C182.072 98.1711 182.591 98.5948 183.02 99.1013C183.476 99.6316 183.867 100.214 184.185 100.837C184.508 101.466 184.757 102.13 184.926 102.816C185.092 103.47 185.177 104.143 185.181 104.818ZM164.303 94.3792H174.742C175.199 94.3831 175.652 94.296 176.075 94.123C176.498 93.9501 176.882 93.6947 177.206 93.3717C177.524 93.0521 177.776 92.6725 177.946 92.255C178.125 91.8201 178.216 91.3538 178.213 90.8834C178.217 90.4264 178.13 89.9732 177.957 89.5502C177.784 89.1272 177.528 88.743 177.205 88.4198C176.882 88.0966 176.498 87.8411 176.075 87.668C175.652 87.4949 175.199 87.4078 174.742 87.4117H164.303V94.3792ZM164.303 108.29H174.742C175.2 108.293 175.654 108.206 176.078 108.033C176.502 107.86 176.887 107.604 177.212 107.282C177.537 106.959 177.795 106.575 177.971 106.152C178.147 105.73 178.237 105.276 178.237 104.818C178.237 104.36 178.147 103.907 177.971 103.484C177.795 103.061 177.537 102.678 177.212 102.355C176.887 102.032 176.502 101.777 176.078 101.604C175.654 101.431 175.2 101.344 174.742 101.347H164.303V108.29Z" fill="#1E1E1E"/>
<path d="M94.5339 105.733C93.5864 106.87 92.2602 107.628 90.934 108.196C89.5662 108.82 88.0801 109.144 86.5764 109.144C85.0728 109.144 83.5867 108.82 82.2188 108.196C80.9472 107.664 79.7896 106.892 78.8093 105.923C77.6724 104.976 76.9152 103.65 76.3463 102.323C75.7783 100.997 75.589 99.6711 75.589 98.1556C75.589 96.6402 75.7783 95.1247 76.3463 93.7975C76.8794 92.4785 77.7246 91.3086 78.8093 90.388C79.7293 89.3027 80.8994 88.4574 82.2188 87.925C83.546 87.357 85.0614 87.1677 86.5769 87.1677H87.3352C88.8506 84.895 90.7447 83.1892 92.6398 82.432C93.2078 82.0524 93.7767 81.8641 94.3446 82.0524C93.8797 81.7257 93.3686 81.4705 92.8282 81.2951C90.8272 80.5524 88.7112 80.1676 86.577 80.1583C84.9808 80.1489 83.3898 80.3397 81.8412 80.7262C80.3257 81.1058 78.8093 81.864 77.4831 82.6213C76.1603 83.4011 74.9493 84.3567 73.8833 85.462C72.7474 86.4105 71.7998 87.7366 71.0426 89.0618C70.2844 90.388 69.7164 91.9044 69.1476 93.4199C68.3903 96.532 68.3903 99.7803 69.1476 102.892C69.7164 104.407 70.2844 105.923 71.0426 107.249C72.6546 109.872 74.8608 112.079 77.4831 113.691C78.8524 114.453 80.3183 115.026 81.8412 115.396C83.3557 115.964 84.8722 116.154 86.5769 116.154C88.7112 116.145 90.8272 115.76 92.8282 115.017C94.7617 114.242 96.5542 113.154 98.1338 111.796L94.5339 105.733Z" fill="#1E1E1E"/>
<path d="M109.122 108.385V80.538H102.301V115.396H126.551V108.385H109.122Z" fill="#1E1E1E"/>
<path d="M122.004 63.6766C121.626 63.1076 121.247 62.5391 120.867 61.9708C120.298 61.4038 119.921 61.0242 119.352 60.8349C119.903 60.4478 120.411 60.0033 120.867 59.5088C121.246 58.9408 121.625 58.3726 122.004 57.804C122.339 57.1424 122.593 56.4429 122.761 55.7206C122.952 55.1517 122.952 54.3944 122.952 53.8255C122.952 52.309 122.761 50.9839 122.194 49.847C121.661 48.5753 120.89 47.4176 119.921 46.4365C118.974 45.5126 117.887 44.7451 116.7 44.1628C115.373 43.5958 114.047 43.4055 112.532 43.4055H95.2916V78.075H112.532C114.047 78.075 115.373 77.8857 116.7 77.3168C119.108 76.1713 121.049 74.2311 122.194 71.8228C122.761 70.4967 122.952 69.1705 122.952 67.655C122.952 67.0871 122.952 66.3289 122.761 65.76C122.594 65.0376 122.339 64.3381 122.004 63.6766ZM112.722 71.2539H102.113V64.2445H112.722C113.398 64.2292 114.061 64.4283 114.616 64.8134C115.563 65.3813 116.321 66.3289 116.321 67.655C116.321 69.7394 114.805 71.2539 112.722 71.2539ZM113.858 57.0457C113.669 57.2351 113.289 57.2351 112.91 57.2351H102.113V50.4149H112.91C113.289 50.4149 113.669 50.4149 113.858 50.6052C114.565 50.7971 115.189 51.2164 115.635 51.7984C116.08 52.3804 116.321 53.0928 116.321 53.8255C116.321 54.5582 116.08 55.2706 115.635 55.8526C115.189 56.4346 114.565 56.8539 113.858 57.0457Z" fill="#1E1E1E"/>
<path d="M132.9 43.1732H126.079V78.075H132.9V43.1732Z" fill="#1E1E1E"/>
<path d="M164.158 43.1732V50.1827H153.739V78.075H146.919V50.1827H136.31V43.1732H164.158Z" fill="#1E1E1E"/>
<path d="M93.108 83.5834C88.3079 85.6203 83.7982 93.3309 84.3798 98.8591C87.4351 92.1669 92.3808 87.9484 99.2187 86.0571C97.7634 83.1474 95.4361 82.4202 93.108 83.5834Z" fill="#F8B116"/>
<path d="M90.3654 66.5182C86.1986 61.5931 80.326 58.3719 72.7477 56.6671C74.4524 55.9089 76.1572 55.1516 77.6727 54.2041C77.699 54.1875 77.7254 54.17 77.7507 54.1534C80.9359 52.0807 83.5628 49.6333 85.6296 46.6258C88.8509 42.2687 90.3654 36.7757 90.3654 30.5235V30.3342C90.3654 28.8353 90.3654 27.5218 90.0004 26.2123C89.9965 26.1966 89.9917 26.182 89.9878 26.1664C89.2295 18.7774 85.8193 12.9041 79.7571 8.5467C72.7477 3.43235 62.7073 0.780029 49.8252 0.780029H6.10352e-05V116.154H53.0455C54.7503 116.154 56.4551 116.154 57.9706 115.964C58.0281 115.964 58.0896 115.964 58.154 115.963C58.5442 115.981 58.9339 115.917 59.2977 115.774C49.0661 111.607 42.0566 101.756 42.0566 90.3881C42.0566 74.6654 55.1289 62.1611 71.0429 62.1611C80.7046 62.1611 89.2295 66.7075 94.3448 73.7169C93.5915 71.0424 92.2295 68.5786 90.3654 66.5182Z" fill="#1E1E1E"/>
<path d="M57.9708 61.2138C49.0661 63.6767 42.6256 69.1703 38.6468 77.8852C37.8894 70.6862 43.7622 60.6449 50.0143 57.9935C53.045 56.4776 56.0756 57.4246 57.9708 61.2138Z" fill="#F2F2F2"/>
<path d="M119.92 26.3547C117.533 25.4592 115.055 24.8241 112.531 24.4606C104.764 23.8917 97.1863 24.2713 90.1769 26.1664C90.1184 26.181 90.0589 26.1967 90.0003 26.2123C82.6796 28.121 75.9209 31.8965 69.9059 37.7223C66.6846 40.7532 64.2226 44.7317 61.5703 48.3315C60.4334 50.2256 60.4334 50.2256 57.9705 50.7946C40.9197 53.6352 29.3638 68.0337 30.1211 85.4621C30.8803 100.995 43.5691 114.255 58.1539 115.963C58.1559 115.963 58.1588 115.964 58.1607 115.964H58.5384C58.7689 116.097 59.0318 116.162 59.2976 116.154C59.5938 116.291 59.9182 116.355 60.2442 116.342C60.2442 116.154 60.0548 116.154 60.0548 115.964C60.0553 115.939 60.0507 115.914 60.0413 115.891C60.0319 115.867 60.0179 115.846 60.0001 115.828C59.9824 115.811 59.9612 115.797 59.9379 115.788C59.9146 115.778 59.8896 115.774 59.8645 115.774C58.918 114.259 57.5918 112.554 57.0239 110.659C56.455 108.196 58.3501 106.113 60.4334 104.407C56.8346 101.756 55.3181 98.1558 56.6443 93.6094C58.3501 89.4416 61.5703 87.9251 66.307 87.5474C65.5478 83.3787 66.4963 79.7788 70.0962 77.5061C73.3164 75.2324 76.726 75.612 79.3783 77.5061C81.2724 75.0431 83.3559 72.9597 85.6295 72.0121C89.0401 70.1171 92.071 71.0656 94.9137 74.4752C92.8283 65.0027 87.145 58.3719 78.0522 54.2041H77.8629C77.8258 54.1866 77.7877 54.17 77.7506 54.1534C73.2257 52.0992 67.7692 50.79 61.381 50.2256C68.9593 40.7532 77.2949 33.5545 89.0401 30.5235C89.4671 30.3822 89.9158 30.3184 90.3653 30.3352C90.4268 30.3342 90.4902 30.3342 90.5556 30.3342H90.7449C101.923 28.0605 112.342 30.7128 122.004 36.3961C125.604 32.2283 125.035 28.4401 119.92 26.3547ZM38.647 77.8857C37.8897 70.686 43.7623 60.6446 50.0144 57.9933C53.0454 56.4778 56.0754 57.4244 57.9705 61.2136C49.066 63.6766 42.6254 69.1705 38.647 77.8857Z" fill="#F8B116"/>
<path d="M174.783 50.4202V57.2342H186.151V57.2386H194.295V64.2369H186.151V64.2435H174.783V71.2531H196.937V78.0759H167.774V43.4062H196.937V50.4202H174.783Z" fill="#1E1E1E"/>
<path d="M215 103.054C215.005 103.707 214.875 104.354 214.619 104.955C214.129 106.129 213.195 107.063 212.02 107.553C211.42 107.81 210.773 107.94 210.12 107.936H208.497V98.1747H210.12C210.773 98.1705 211.421 98.3019 212.02 98.5606C212.601 98.8093 213.128 99.1655 213.576 99.6103C214.02 100.056 214.374 100.582 214.619 101.161C214.876 101.759 215.005 102.404 215 103.054Z" fill="#F8B116"/>
<path d="M192.625 111.192H192.227C192.223 111.186 192.219 111.18 192.215 111.174C192.351 111.186 192.488 111.192 192.625 111.192Z" fill="#F8B116"/>
<path d="M199.498 106.312C199.499 106.525 199.459 106.737 199.378 106.935C199.297 107.133 199.178 107.313 199.028 107.464C198.876 107.615 198.697 107.734 198.499 107.815C198.301 107.896 198.089 107.937 197.875 107.936H192.994V104.689H197.875C198.093 104.687 198.309 104.729 198.51 104.812C198.632 104.865 198.748 104.932 198.855 105.011C199.056 105.163 199.22 105.359 199.331 105.585C199.443 105.811 199.5 106.06 199.498 106.312H199.498Z" fill="#F8B116"/>
<path d="M199.498 99.799C199.499 100.018 199.457 100.236 199.373 100.439C199.294 100.634 199.177 100.812 199.028 100.962C198.975 101.016 198.917 101.065 198.856 101.109C198.749 101.189 198.633 101.255 198.51 101.307C198.309 101.392 198.093 101.435 197.875 101.434H192.994V98.1747H197.875C198.089 98.1733 198.301 98.2143 198.499 98.2953C198.697 98.3762 198.876 98.4956 199.028 98.6464C199.178 98.798 199.297 98.9779 199.378 99.1757C199.459 99.3736 199.499 99.5854 199.498 99.799H199.498Z" fill="#F8B116"/>
<path d="M192.215 111.174C192.219 111.18 192.223 111.186 192.227 111.192H192.625C192.488 111.192 192.351 111.186 192.215 111.174Z" fill="#F8B116"/>
<path d="M213.446 110.457C213.454 110.455 213.461 110.452 213.467 110.447C213.453 110.469 213.439 110.492 213.424 110.514C212.278 112.245 210.734 113.677 208.922 114.69C207.109 115.703 205.081 116.267 203.006 116.335C200.931 116.404 198.869 115.974 196.994 115.083C195.119 114.192 193.484 112.864 192.227 111.212C192.217 111.198 192.207 111.186 192.198 111.172C192.204 111.174 192.209 111.175 192.215 111.174C192.219 111.18 192.223 111.186 192.227 111.191H197.875C198.527 111.196 199.173 111.064 199.771 110.805C200.938 110.304 201.868 109.374 202.369 108.207C202.628 107.609 202.759 106.963 202.755 106.312C202.753 105.996 202.713 105.681 202.637 105.375C202.558 105.054 202.441 104.744 202.289 104.451C202.14 104.159 201.958 103.887 201.745 103.639C201.544 103.403 201.301 103.204 201.03 103.054C201.293 102.891 201.53 102.689 201.733 102.454C201.947 102.208 202.13 101.938 202.278 101.648C202.429 101.356 202.546 101.048 202.63 100.73C202.711 100.426 202.753 100.113 202.755 99.7989C202.76 99.1472 202.628 98.5017 202.369 97.9036C201.867 96.7366 200.937 95.8062 199.771 95.3033C199.172 95.0453 198.527 94.9139 197.875 94.9174H192.668C193.922 93.4418 195.491 92.265 197.258 91.473C199.026 90.681 200.948 90.2938 202.884 90.3397C204.82 90.3856 206.722 90.8633 208.45 91.7381C210.178 92.6129 211.688 93.8626 212.871 95.396C212.679 95.3256 212.484 95.2638 212.283 95.209C211.579 95.0135 210.851 94.9153 210.12 94.9174H205.218V111.191H210.12C210.851 111.194 211.579 111.097 212.283 110.901C212.673 110.794 213.054 110.657 213.424 110.493C213.432 110.482 213.439 110.47 213.446 110.457Z" fill="#F8B116"/>
</svg>
